<?xml version="1.0" encoding="utf-8"?>
<!-- Generator: Adobe Illustrator 24.1.0, SVG Export Plug-In . SVG Version: 6.00 Build 0)  -->
<svg version="1.1" id="Capa_1" xmlns="http://www.w3.org/2000/svg" xmlns:xlink="http://www.w3.org/1999/xlink" x="0px" y="0px"
	 viewBox="0 0 818 818" style="enable-background:new 0 0 818 818;" xml:space="preserve">
<style type="text/css">
	.st0{fill:none;stroke:#000000;stroke-width:2;stroke-miterlimit:10;}
	.st1{fill:none;stroke:#FFDD00;stroke-width:2;stroke-miterlimit:10;}
</style>
<path class="st0" d="M487.4,734.4H24V25.7h470.5c131.5,0,238.1,106.6,238.1,238.1V489C732.7,624.5,622.8,734.4,487.4,734.4z"/>
<path class="st1" d="M394.5,74.6h97.1c88.6,0,181.2,50.5,181.2,148.6c0,80.5-59.7,131.6-113.5,143.1c53.3,10,124.5,48,124.5,139.6
	c-0.1,100.5-86.7,179.5-183.3,179.5h-106"/>
<path class="st0" d="M734.7,167.6c38.6,42.3,62.1,98.6,62.1,160.4v225.2c0.1,135.5-109.8,245.4-245.2,245.4H88.2"/>
<line class="st0" x1="24" y1="734.4" x2="88.2" y2="798.6"/>
<line class="st0" x1="658.3" y1="90.8" x2="734.7" y2="167.6"/>
<g>
	<path class="st1" d="M72.9,685.4V74.6h321.6v137.3H256.6v101.9h125.2v123.4H256.6v110.9h137.9v137.3H72.9L72.9,685.4z"/>
</g>
</svg>
